<svg width="66" height="71" viewBox="0 0 66 71" fill="none" xmlns="http://www.w3.org/2000/svg">
<g clip-path="url(#clip0_405_8871)">
<path d="M49.7165 36.3314C58.8498 43.0102 63.0673 51.8782 62.4528 63.1296C62.76 63.2404 63.1231 63.379 63.4862 63.5176C65.2738 64.2104 66.2514 65.984 65.9441 67.8685C65.6648 69.5867 64.0449 70.9169 62.2014 71C62.0618 71 61.9221 71 61.7825 71C42.5942 71 23.4338 71 4.24544 71C1.45238 71 -0.446897 68.9215 0.0837844 66.372C0.446882 64.5429 1.81548 63.6284 3.54718 63.2127C2.90477 51.9891 7.09436 43.0656 16.1439 36.47C15.3339 34.1975 14.3563 31.9805 13.7977 29.6803C12.2057 23.3064 13.7977 17.5144 17.5683 12.2767C20.4173 8.31382 23.9644 4.93287 27.8747 2.02303C31.394 -0.609675 34.2429 -0.637388 37.846 1.9399C41.9797 4.84973 45.6945 8.31382 48.5992 12.4707C53.5429 19.5098 54.1016 26.9645 50.4706 34.724C50.3589 34.9735 50.2192 35.2229 50.1075 35.4723C49.9958 35.7217 49.884 35.9711 49.7165 36.3314ZM46.1134 19.87C46.1134 20.646 46.1413 21.1171 46.1134 21.5882C45.8341 26.6596 44.8007 31.4539 41.449 35.5C37.7342 39.9895 31.0588 40.7377 26.4223 37.2182C23.7969 35.2229 22.1769 32.507 21.3669 29.4586C20.5569 26.4102 20.138 23.2787 19.5514 20.2026C15.9484 21.4219 14.9708 22.9739 15.5573 26.8536C15.6691 27.491 15.7528 28.1284 15.8925 28.7658C16.7584 32.9781 18.8531 36.5808 21.3669 39.9895C21.8696 40.6546 22.5958 41.4028 21.6183 42.1233C20.5569 42.927 20.0542 41.9571 19.5235 41.2643C18.8531 40.322 18.1828 39.3798 17.5125 38.4376C8.85399 43.6198 4.49682 55.2038 6.033 63.185C9.58019 63.185 13.1553 63.185 16.7584 63.185C16.7584 62.9356 16.7863 62.7416 16.7584 62.5753C15.9484 57.3931 15.1663 52.1831 14.3563 47.0008C14.1049 45.4212 14.4401 44.95 15.8925 44.95C27.2882 44.95 38.6839 44.95 50.1075 44.95C51.504 44.95 51.8671 45.3934 51.6995 46.7237C51.3923 48.7744 51.0571 50.8251 50.7499 52.8759C50.2192 56.2845 49.7165 59.6932 49.2137 63.185C52.9005 63.185 56.5036 63.185 60.0787 63.185C61.4473 53.7073 56.3081 43.1487 48.5434 38.4376C47.873 39.3798 47.2027 40.322 46.5324 41.2643C46.0296 41.9571 45.4989 42.9547 44.4655 42.1511C43.4041 41.3474 44.3259 40.6269 44.7727 39.9063C45.8341 38.2436 47.0072 36.6085 47.9568 34.8626C49.7723 31.5371 50.7778 27.9621 50.6102 24.1101C50.5823 23.4727 50.3589 22.6413 49.912 22.281C48.7947 21.4219 47.5658 20.7845 46.1134 19.87ZM19.1045 63.1573C28.4613 63.1573 37.6784 63.1573 46.9234 63.1573C47.7334 57.8087 48.5154 52.5433 49.3254 47.2779C38.3487 47.2779 27.5954 47.2779 16.7304 47.2779C17.5125 52.5988 18.2945 57.8365 19.1045 63.1573ZM32.986 16.4059C29.6623 17.0988 26.4782 17.7361 23.35 18.4844C22.9031 18.5952 22.2607 19.3158 22.2607 19.7592C21.9814 24.6643 22.8193 29.3478 25.7799 33.3938C29.4668 38.4376 36.198 38.5761 40.0245 33.671C43.2366 29.5695 44.0465 24.7475 43.7672 19.7038C43.7393 19.2881 43.1248 18.6507 42.6779 18.5398C39.4659 17.7639 36.226 17.0988 32.986 16.4059ZM49.4651 19.1772C49.4371 18.9001 49.4651 18.7615 49.4371 18.6507C46.5603 11.7779 41.3373 6.9559 35.2763 2.90984C33.7681 1.91218 32.0643 1.99532 30.5281 2.96527C29.2154 3.79665 27.9027 4.73888 26.7575 5.76425C22.8472 9.25605 19.1045 12.831 16.9818 17.7361C16.8142 18.1518 16.6746 18.5952 16.4511 19.1495C27.5954 13.0804 38.4604 13.1358 49.4651 19.1772ZM32.986 65.4575C23.6851 65.4575 14.3842 65.4575 5.08336 65.4575C4.72026 65.4575 4.32924 65.4297 3.96614 65.4575C2.96064 65.5406 2.2903 66.0117 2.26237 67.0925C2.26237 68.1456 2.90477 68.6721 3.91028 68.7553C4.24544 68.783 4.55268 68.7553 4.88785 68.7553C23.6293 68.7553 42.3707 68.7553 61.1121 68.7553C61.5311 68.7553 62.0618 68.8938 62.3411 68.6998C62.8718 68.3119 63.6538 67.7022 63.6259 67.2034C63.598 66.6214 62.9276 65.9563 62.369 65.5129C62.0897 65.2912 61.4752 65.4297 61.0004 65.4297C51.6995 65.4575 42.3428 65.4575 32.986 65.4575Z" fill="#05BF23"/>
<path d="M36.0863 57.587C36.0584 59.2775 34.6619 60.6354 32.9581 60.6077C31.2543 60.58 29.9137 59.1944 29.9416 57.4762C29.9695 55.7857 31.394 54.4001 33.0698 54.4555C34.7457 54.4832 36.1143 55.8966 36.0863 57.587Z" fill="#05BF23"/>
</g>
<defs>
<clipPath id="clip0_405_8871">
<rect width="66" height="71" fill="white"/>
</clipPath>
</defs>
</svg>
